<svg id="contours" xmlns="http://www.w3.org/2000/svg" viewBox="0 0 566.92913 553.88963">
  <defs>
    <style>
      .cls-1 {
        fill: #1d1d1b;
      }

      .cls-2 {
        fill: #ec6523;
      }

      .cls-3 {
        fill: #e52320;
      }

      .cls-4 {
        fill: #7c217d;
      }

      .cls-5 {
        fill: #4153a0;
      }

      .cls-6 {
        fill: #37a3dc;
      }

      .cls-7 {
        fill: #8cc04d;
      }

      .cls-8 {
        fill: #f3e600;
      }

      .cls-9 {
        fill: #f7a813;
      }

      .cls-10 {
        fill: #5d3e91;
      }
    </style>
  </defs>
  <path class="cls-1" d="M528.81394,114.88176h-66.08L411.88367,26.1641A38.20233,38.20233,0,0,0,378.815,7H285.79428a38.15828,38.15828,0,0,0-33.23251,19.44878l-49.67058,88.433H38.11519A38.15727,38.15727,0,0,0,0,152.997v396.0293a8.389,8.389,0,1,0,16.77806,0v-315.416H153.29843a8.389,8.389,0,1,0,0-16.77805H16.77806V152.997a21.36131,21.36131,0,0,1,21.33713-21.33714h174.5987l54.47953-96.99609a21.35355,21.35355,0,0,1,18.60086-10.88566H378.815a21.38447,21.38447,0,0,1,18.51075,10.728l55.68381,97.15379h75.80437A21.36132,21.36132,0,0,1,550.15108,152.997v63.83526H511.08966a8.389,8.389,0,0,0,0,16.77805h39.06142V519.30419a21.35913,21.35913,0,0,1-21.33714,21.333H237.61881a8.389,8.389,0,0,0,0,16.77805H528.81394a38.1564,38.1564,0,0,0,38.11519-38.11109V152.997A38.15727,38.15727,0,0,0,528.81394,114.88176Z" transform="translate(0 -7)"/>
  <path class="cls-2" d="M352.1697,351.9376c1.53967-4.24316,3.01763-8.50577,4.37962-12.79015.03277-.10317.06016-.20685.09293-.31,1.31744-4.15841,2.52531-8.333,3.66892-12.50981.13184-.48233.25012-.96517.37992-1.4475-.19738-.08474-.39375-.18688-.59088-.27367-.55247-.243-1.10392-.50768-1.65563-.76651-.84024-.394-1.6797-.79773-2.5184-1.22809-.5686-.29211-1.1367-.59753-1.70453-.90628q-1.24-.674-2.47693-1.39963c-.56451-.33179-1.12876-.66921-1.69275-1.01739-.83614-.51664-1.67049-1.05733-2.50483-1.61032-.54505-.36149-1.09087-.71965-1.63516-1.0965-.87351-.605-1.74549-1.24244-2.617-1.88759-.50025-.37019-1.001-.72835-1.50075-1.11186-.98923-.75908-1.97565-1.55963-2.96181-2.37017-.37736-.31029-.756-.60137-1.13311-.91908q-2.05374-1.73078-4.09851-3.60671c-.14439-.13287-.288-.27829-.43241-.41244q-1.81718-1.68546-3.62719-3.48357c-.43547-.43394-.8689-.89425-1.30387-1.33817-.91448-.93394-1.8287-1.875-2.74011-2.85378-.5046-.542-1.00766-1.10572-1.5115-1.66127-.842-.92907-1.68354-1.86735-2.523-2.83483-.531-.61187-1.06092-1.23859-1.59087-1.86582q-1.21311-1.43624-2.4229-2.92315-.81066-.99846-1.61928-2.01969-1.207-1.52571-2.40934-3.10876c-.52687-.69175-1.05375-1.38221-1.5796-2.08932-.82794-1.11315-1.65307-2.25676-2.478-3.408-.49436-.69022-.98949-1.37019-1.48282-2.074-.90014-1.28391-1.797-2.60647-2.693-3.93569-.41141-.61008-.82385-1.202-1.23449-1.82153q-1.95735-2.95427-3.90343-6.04523c-1.22733-1.95517-2.50458-3.74547-3.812-5.43259-.11931-.15412-.23554-.31925-.35535-.47132-1.25446-1.58805-2.54605-3.04656-3.863-4.417-.183-.19048-.3643-.38709-.54838-.57373-1.29773-1.31437-2.6231-2.52787-3.9705-3.65842-.20891-.17511-.41807-.34946-.62825-.52073q-2.02878-1.65358-4.1172-3.07216c-.20046-.13619-.40245-.26574-.60368-.39886-1.42292-.94111-2.86018-1.81974-4.31356-2.62311-.14439-.07962-.28981-.15258-.43445-.23118a81.97027,81.97027,0,0,0-9.35139-4.30076c-.11264-.044-.225-.09165-.33793-.13517-1.51381-.58551-3.02991-1.12953-4.54346-1.65154-.10778-.03738-.21582-.075-.32386-.11214a123.25643,123.25643,0,0,0-41.866,42.13q-.922,1.563-1.787,3.12c.49641.36073.98565.72631,1.48385,1.08575q1.91088,1.37864,3.84326,2.73985,2.31756,1.6413,4.65483,3.26494,1.93084,1.33791,3.876,2.66074,2.38246,1.62132,4.78488,3.2191,1.92624,1.28224,3.86144,2.553,2.47,1.61519,4.959,3.20067c1.26675.81,2.532,1.6221,3.8041,2.42189,1.7245,1.0837,3.45719,2.14922,5.19091,3.21347,1.21914.74832,2.43545,1.50433,3.65843,2.24293,1.89654,1.14514,3.80076,2.26494,5.705,3.38525,1.06655.62724,2.12926,1.26727,3.1976,1.88631q4.28142,2.48153,8.57771,4.874c.65027.36226,1.30105.71043,1.95184,1.06936,2.42034,1.3346,4.84171,2.65716,7.26308,3.94593,1.15308.61366,2.30514,1.20275,3.458,1.80591,1.83279.959,3.66585,1.91908,5.49634,2.84994,1.28134.65181,2.5591,1.28083,3.83865,1.9183,1.69634.84536,3.39217,1.68892,5.08391,2.50893,1.33459.64669,2.66483,1.2752,3.99559,1.90576,1.63106.77265,3.26032,1.5394,4.88472,2.28722q2.0307.93469,4.05217,1.83868,2.39091,1.07371,4.769,2.10955,2.0184.879,4.02708,1.73218c1.58626.672,3.16483,1.32487,4.73982,1.97,1.31642.53916,2.63284,1.07832,3.94055,1.59829,1.59419.63388,3.17584,1.24063,4.75647,1.84508,1.26214.48284,2.52812.97336,3.78079,1.43726,1.65589.61289,3.29233,1.18969,4.93,1.76879,1.15206.40732,2.31308.83127,3.45566,1.22144.16462.05606.32463.10471.489.16052C351.85558,352.76708,352.01866,352.35413,352.1697,351.9376Z" transform="translate(0 -7)"/>
  <path class="cls-3" d="M365.04485,306.74084c.27675-1.33.52149-2.65869.7793-3.98817.47439-2.44518.928-4.88933,1.33869-7.33144.24116-1.43367.46569-2.86657.68483-4.29922q.54494-3.55986.99692-7.11383c.181-1.415.36328-2.83.52278-4.2429.28315-2.51.51714-5.0158.7327-7.51987.106-1.233.23195-2.468.32156-3.69964q.36711-5.04639.54914-10.07359c.0128-.3533.04173-.70839.05325-1.06143.12059-3.70962.15387-7.409.1234-11.09969-.00921-1.1029-.05581-2.20069-.07834-3.30154-.053-2.58676-.12621-5.17069-.254-7.74644-.06708-1.351-.161-2.69761-.24859-4.04526-.08909-1.37248-.20737-2.73985-.31771-4.109a124.06212,124.06212,0,0,0-87.23586.27521c.214.10881.43522.24065.65027.35227.79211.41116,1.58882.84613,2.39193,1.2962.45007.25217.89681.49871,1.34944.76368.89912.52585,1.8031,1.09011,2.7099,1.66921.35407.22606.70506.4342,1.05964.6687,1.25651.83076,2.51558,1.71119,3.77414,2.65434.224.16795.44623.35868.67.53021,1.02841.78852,2.05425,1.609,3.076,2.47974.42242.35995.83946.7473,1.26009,1.12185.8259.73578,1.64693,1.49127,2.4631,2.28568.46236.45007.9196.9155,1.37812,1.38528q1.16857,1.197,2.3141,2.48461c.44777.501.894,1,1.33587,1.52148.80516.95007,1.59445,1.95133,2.37836,2.97231.372.48438.74986.947,1.11648,1.44775,1.13413,1.54914,2.24728,3.15971,3.32253,4.87218.79646,1.26906,1.62414,2.56064,2.4736,3.86375.24423.3748.502.75626.75063,1.13337.619.93905,1.24447,1.88144,1.88963,2.83176.31.457.63107.91678.947,1.37581q.90744,1.31757,1.843,2.64154c.35279.49743.71249.99538,1.07167,1.49383q.92472,1.28224,1.8776,2.56474.56643.76228,1.14233,1.523.96927,1.27994,1.969,2.553c.39067.499.77955.99819,1.17637,1.49511.70609.884,1.42728,1.76112,2.1523,2.63566.36866.44469.73143.8922,1.105,1.33382.8689,1.02764,1.75624,2.04145,2.65075,3.04886.245.276.48259.55811.72938.8323q1.72962,1.92086,3.5189,3.777c.22683.235.46159.45877.6897.69174.95928.98,1.92649,1.94852,2.90958,2.89192.41526.39836.83947.78007,1.25856,1.17126.81131.757,1.62594,1.50766,2.45235,2.23551.48463.42677.97618.839,1.46593,1.255.78109.66359,1.56654,1.31616,2.36018,1.95005.52.41525,1.044.82078,1.56936,1.22272q1.17971.90245,2.37759,1.7542c.533.38018,1.06655.75754,1.60418,1.1221.82077.55683,1.64974,1.08473,2.48153,1.60341.52508.32744,1.04863.6623,1.57806.97413.90424.53225,1.81821,1.02251,2.73447,1.50612.46518.24526.92575.50972,1.39374.74218.09037.04481.18279.07885.27316.12315C364.815,307.738,364.94116,307.2393,365.04485,306.74084Z" transform="translate(0 -7)"/>
  <path class="cls-4" d="M381.1204,313.12426c.2619.02484.5238.02612.78571.04557.99051.07425,1.98077.11828,2.97077.11854.43215,0,.8643-.02048,1.2967-.03482.81745-.02663,1.63516-.07553,2.45235-.15233.49411-.04711.988-.1001,1.48206-.16564.7578-.09933,1.51483-.23067,2.27237-.37352.52022-.09882,1.04018-.18792,1.5604-.307.76189-.17358,1.52276-.392,2.28389-.60931.61776-.17691,1.23526-.34716,1.85276-.55325,1.031-.34305,2.06142-.71837,3.09136-1.14156.64617-.266,1.29158-.57782,1.93725-.87556.58089-.26728,1.16229-.52969,1.74268-.82283.6728-.33973,1.3456-.70992,2.01789-1.08421.55606-.30926,1.11186-.62672,1.66767-.95954.6751-.4045,1.34995-.82257,2.02455-1.26188.56118-.36559,1.12184-.75319,1.68277-1.14259.66179-.45954,1.32358-.915,1.98486-1.40781.62519-.46646,1.2496-.97157,1.874-1.46772.82948-.65873,1.65845-1.33255,2.48665-2.04376.91832-.78954,1.83638-1.5906,2.75316-2.44492.51177-.47644,1.02226-.99154,1.53352-1.4882.73578-.71556,1.47156-1.43444,2.20606-2.19147.51075-.52585,1.02073-1.07423,1.5307-1.62031.74961-.80311,1.49819-1.62363,2.24652-2.47026.48207-.54505.96363-1.095,1.44493-1.65794.81054-.94879,1.62031-1.93085,2.429-2.93058.41653-.5151.83358-1.01791,1.24986-1.54657.14567-.1851.29083-.3871.4365-.57373a123.08709,123.08709,0,0,0-44.07568-45.15989q-1.33945-.80491-2.7035-1.577.2308,4.94232.2852,9.909c.00666.54685-.01,1.096-.00665,1.64335q.02994,4.874-.10651,9.76766c-.0343,1.234-.08832,2.47-.13824,3.70553q-.16321,4.04142-.43855,8.09307c-.08372,1.23245-.16129,2.46387-.26062,3.6976q-.40784,5.06982-.98642,10.15244c-.05146.449-.08551.89656-.139,1.34561-.4534,3.80588-.99845,7.6174-1.59854,11.43174-.18254,1.16-.39144,2.3205-.58755,3.481q-.70122,4.15048-1.51457,8.3048c-.24808,1.26035-.49795,2.52045-.76164,3.78157-.17793.85073-.32872,1.70044-.51382,2.55117C380.95425,313.09687,381.03745,313.11658,381.1204,313.12426Z" transform="translate(0 -7)"/>
  <path class="cls-5" d="M436.89945,304.68915c-.6559.67536-1.31053,1.3602-1.969,2.00893-.6536.64388-1.31053,1.25216-1.96644,1.86967-.673.63388-1.34586,1.27827-2.02147,1.88425-.648.58089-1.299,1.12518-1.94929,1.68072-.68893.58858-1.37709,1.18816-2.06832,1.74806-.63184.51151-1.26727.98591-1.90115,1.47335-.7171.55146-1.43265,1.11443-2.1523,1.63516-.608.43983-1.21888.84177-1.8287,1.25958-.74833.51279-1.49589,1.03736-2.24677,1.51739-.58909.37634-1.181.714-1.77161,1.06988-.7747.467-1.54837.94571-2.32588,1.3776-.57091.3172-1.14489.59523-1.71733.89349-.80209.41806-1.60367.84817-2.40883,1.22886-.54863.25934-1.10008.47977-1.65.72195-.831.3661-1.66075.74449-2.49484,1.07116-.532.2084-1.06707.37711-1.60034.56937-.85636.309-1.71145.63031-2.57088.89784-.51587.16052-1.03455.28136-1.55169.427-.87787.24756-1.75446.50767-2.63566.71223-.52226.12135-1.04786.201-1.57115.30721-.87991.17844-1.75906.37122-2.64205.50716-.52995.08167-1.063.11982-1.59394.18613-.87966.10957-1.75778.23553-2.64026.30286-.73706.05632-1.47821.05888-2.21732.08576-.67306.02432-1.34407.07809-2.01892.07809q-2.1121,0-4.23522-.16027c-1.12927-.08448-2.2629-.22887-3.39678-.3812-.27291-.03661-.54377-.0512-.81694-.09191l-.1449.58832-.105-.031c-.07911.2916-.17588.58115-.256.87275q-1.62324,5.91044-3.46206,11.79809c-.13543.43241-.25191.86635-.38914,1.2985-1.38016,4.3471-2.8676,8.67218-4.42159,12.97883-.13134.36354-.24091.73245-.37327,1.09573.30107.08423.596.159.8963.24168,3.69734,1.01867,7.33477,1.94851,10.89283,2.76314.19432.04455.39452.09729.58858.14107,3.64075.8241,7.19088,1.51943,10.67829,2.12849.48617.085.97592.1746,1.45927.2555q5.08212.84945,9.93433,1.39015c.45672.051.90654.09344,1.36019.14029,3.298.34025,6.52961.594,9.65732.7171.13492.00537.2642.00384.39887.0087,3.12079.11367,6.14712.10983,9.091.00614.25089-.009.51-.00768.75934-.01817,2.8594-.1193,5.61564-.36252,8.29942-.6897.44828-.05479.89758-.10829,1.34074-.169q3.88972-.53072,7.52191-1.35456c.40169-.09191.79108-.19764,1.18816-.29519a71.36207,71.36207,0,0,0,7.10768-2.09469c.02842-.01024.05453-.02279.08269-.033a124.17473,124.17473,0,0,0-6.7188-62.50118c-.49871.576-1.00152,1.10649-1.50177,1.6669-.64157.71889-1.28237,1.44545-1.9265,2.138C438.23123,303.32563,437.56509,304.00355,436.89945,304.68915Z" transform="translate(0 -7)"/>
  <path class="cls-6" d="M361.67648,373.99131l-.05965-.01869c-.19969.48054-.43445.96543-.63644,1.44622-1.81795,4.32431-3.70835,8.6581-5.72163,13.00161-.076.16436-.14363.3277-.21992.4918-2.0778,4.46742-4.28565,8.93587-6.56007,13.40048-.16948.33307-.31874.66666-.48924.99947l.12032.053-.28443.52406c.30824.18714.57091.415.87454.60623q2.78492,1.75191,5.342,3.703c.32155.24654.66512.47209.98129.72324a72.44046,72.44046,0,0,1,5.53449,4.90367c.44725.43676.86763.88555,1.30131,1.33075q2.05682,2.11058,3.91265,4.32969c.36021.43139.735.852,1.08421,1.28877q2.20888,2.76417,4.1259,5.63945c.26139.39349.49206.79159.74526,1.18739q1.53876,2.40511,2.87374,4.84812c.29109.53173.58294,1.05784.85969,1.59111,1.02149,1.96874,1.97616,3.94081,2.80616,5.90776.06093.14439.10675.28545.16666.42984.76932,1.85251,1.43547,3.68761,2.03786,5.50812.17716.53532.34306,1.06168.50614,1.59291.51459,1.67688.96671,3.32817,1.34074,4.94745.04659.20174.12263.41653.16718.61724a122.07669,122.07669,0,0,0,50.43657-46.88106,124.40684,124.40684,0,0,0,11.74792-26.08054c-.26139.06119-.54454.09216-.80721.1513q-3.54143.79761-7.25412,1.361c-.28546.04275-.56195.0983-.84869.13875-2.6185.371-5.31533.63261-8.06184.82667-.55683.03943-1.11417.07808-1.67637.11009-2.47949.14157-4.991.2386-7.57158.2386-.25448,0-.5215-.01767-.77674-.019-.62724-.00332-1.27444-.03507-1.90756-.04685q-3.594-.06643-7.315-.3108c-.87044-.05709-1.74063-.11469-2.62157-.18637-2.95234-.24065-5.94744-.54224-9.015-.94725-.17-.02253-.33333-.03482-.50358-.0576-3.22678-.43471-6.53626-.98847-9.88875-1.60418-.94571-.17358-1.90422-.3661-2.85992-.55427q-3.98611-.78455-8.08719-1.73653c-.86635-.201-1.72092-.3853-2.59469-.59728q-5.21537-1.26611-10.60763-2.79233c-.19073-.054-.37173-.0937-.563-.14823Z" transform="translate(0 -7)"/>
  <path class="cls-7" d="M337.068,423.20645c-1.64667,2.811-3.28925,5.55983-4.9221,8.20751-.13287.21531-.26651.44291-.39887.65693-1.744,2.8164-3.46872,5.50786-5.18016,8.13379-.46569.71453-.92523,1.41139-1.38759,2.11159q-2.20159,3.33252-4.34736,6.45562c-.24756.35944-.49922.73783-.74525,1.09292-1.62159,2.34021-3.20349,4.56112-4.75825,6.70856-.4534.6262-.89375,1.22655-1.34074,1.83612q-1.82948,2.49536-3.57727,4.80511c-.36277.47951-.733.97848-1.0901,1.4457-.06068.07911-.12545.16743-.18587.24628a124.61521,124.61521,0,0,0,57.54477-5.2754c-.00922-.06093-.012-.11725-.0215-.17844-.22043-1.42164-.54429-2.90753-.93215-4.42313-.09575-.3748-.20173-.75345-.30772-1.1326-.42959-1.53582-.915-3.09648-1.51074-4.68632-.01612-.043-.02765-.08474-.04377-.12775-.61059-1.619-1.33869-3.25955-2.11979-4.90059-.18459-.38761-.37071-.77495-.56476-1.16256-.818-1.63464-1.701-3.26851-2.6866-4.8837-.11751-.19278-.25192-.38146-.372-.57372-.91729-1.46926-1.91523-2.91676-2.97077-4.34044-.25653-.34588-.50691-.69406-.77137-1.03634-1.18611-1.53455-2.44851-3.03248-3.79744-4.47434-.24731-.26446-.51279-.51535-.76573-.776q-1.84637-1.90357-3.88807-3.65535c-.28827-.2473-.564-.50485-.8579-.74679a53.91506,53.91506,0,0,0-4.896-3.577c-.15232-.09882-.31259-.18868-.4662-.28622-.43675.76753-.87249,1.4946-1.30925,2.25087C337.95306,421.69034,337.512,422.44865,337.068,423.20645Z" transform="translate(0 -7)"/>
  <path class="cls-8" d="M322.36546,411.76088c-.66307-.13082-1.32666-.26036-1.99844-.36584-1.35558-.21275-2.73319-.35944-4.12334-.46927-.55427-.04378-1.09855-.11572-1.65819-.14311-1.94621-.0955-3.92135-.10446-5.93233-.00231-.35561.01792-.72273.07348-1.08038.0978-1.67151.11341-3.362.28545-5.07673.53379-.71581.10368-1.44315.24449-2.16638.37173-1.40372.24679-2.81922.531-4.25033.86635-.78724.18458-1.5778.37813-2.37324.58959-1.47847.39273-2.97487.84382-4.48176,1.32922-.71786.23118-1.42932.44111-2.15358.69328-2.22168.77393-4.46486,1.61954-6.74491,2.59137-2.05988.88017-4.07086,1.659-6.05342,2.38168-.63876.233-1.25959.43394-1.8904.6513-1.33613.46057-2.65921.89732-3.95873,1.2903-.71069.2148-1.41191.41679-2.11159.61239q-1.82756.51074-3.60159.93342c-.66205.15873-1.32692.32514-1.97821.467-1.33127.2898-2.63258.53481-3.91905.75754-.4452.07706-.90475.17614-1.34458.24552-1.67074.26343-3.29949.4685-4.8924.62723-.53788.0535-1.05273.08038-1.58165.12263-1.08421.087-2.15691.16231-3.203.20481-.59754.02406-1.181.03533-1.766.04582-.47593.00871-.97029.03713-1.43777.03713-.32232,0-.61059-.032-.92881-.0361-1.32026-.0169-2.60007-.06938-3.85172-.15028-.52917-.034-1.06962-.05453-1.58651-.09882-.17921-.01536-.37378-.01767-.55145-.03431a123.59843,123.59843,0,0,0,55.319,34.94191c.12237-.15258.23169-.28238.35534-.437.43036-.53814.8876-1.12595,1.33024-1.68661.93112-1.1792,1.88375-2.40038,2.86556-3.67865.51228-.66692,1.033-1.35226,1.55783-2.04606,1.01919-1.34739,2.06628-2.757,3.129-4.204.48745-.66359.96747-1.30951,1.46312-1.99383,1.56219-2.15691,3.15459-4.39165,4.788-6.75285.06963-.10036.14183-.21147.21146-.31234,1.55323-2.25009,3.139-4.6113,4.74085-7.04265.51459-.78084,1.03634-1.59752,1.555-2.39705q1.79606-2.76879,3.61823-5.68246.8748-1.39975,1.75343-2.83c1.2752-2.07857,2.55655-4.22191,3.84071-6.40518.47592-.80926.95032-1.59471,1.427-2.418.15-.25935.3-.5407.45007-.80133C323.50369,412.032,322.94226,411.8743,322.36546,411.76088Z" transform="translate(0 -7)"/>
  <path class="cls-9" d="M333.23858,395.2629q2.73652-5.35284,5.27668-10.70824c.32616-.6874.67664-1.3753.99794-2.0627q2.96616-6.34784,5.62921-12.668c.14055-.33153.267-.66051.40629-.99205-.07347-.02508-.14849-.0535-.222-.07859-.4511-.15438-.90962-.32591-1.36173-.48233q-3.65011-1.26418-7.3404-2.62208c-.95672-.35381-1.92189-.73066-2.88245-1.0942-1.97745-.74858-3.95745-1.50561-5.95051-2.29567-1.10341-.43727-2.21169-.892-3.31946-1.34176q-2.81372-1.14285-5.64176-2.33253-1.72885-.73041-3.46334-1.48258-2.81525-1.21656-5.64354-2.48409c-1.15-.5151-2.299-1.031-3.45182-1.55809q-2.90857-1.33063-5.82814-2.71783c-1.09522-.51817-2.18839-1.02969-3.28541-1.55835-2.13054-1.02687-4.26466-2.08369-6.40058-3.14973-.90628-.45237-1.81077-.89144-2.71808-1.35072q-9.16539-4.63972-18.34665-9.72875c-.85611-.47464-1.70965-.967-2.56525-1.44724-2.18584-1.22681-4.37014-2.4613-6.55137-3.72345-1.098-.63517-2.19224-1.28544-3.28848-1.92931q-2.90972-1.70927-5.81149-3.45182-1.77264-1.06911-3.53887-2.15691-2.77224-1.6989-5.53244-3.43031-1.808-1.13594-3.61-2.28415-2.74189-1.75-5.4669-3.53528c-1.17536-.7683-2.35045-1.53429-3.5212-2.31154q-2.83329-1.88092-5.6415-3.80282c-1.07628-.73245-2.15563-1.45773-3.2273-2.19761q-3.22422-2.22654-6.41081-4.503c-.775-.55068-1.55759-1.09036-2.32946-1.64463-.10318-.074-.20814-.14567-.31132-.21991a122.98575,122.98575,0,0,0,8.05826,106.45935c.25448.13236.52457.26676.8003.40194.20711.10163.40271.202.62185.30465.44726.20916.93445.41986,1.43163.62979.15745.06631.29877.13313.46108.19944a44.84375,44.84375,0,0,0,4.661,1.60315c.12954.03687.27367.06836.40526.10471.73118.20123,1.48514.39528,2.27775.5727.276.0617.57373.11316.85688.17127.67638.13927,1.36173.27419,2.08036.39119.36328.05914.74679.10548,1.12082.15822.67741.09549,1.36276.18612,2.0755.25831.42831.04353.87428.07373,1.31513.108.69815.054,1.40654.10061,2.13618.12954.4854.0192.98436.02714,1.48385.03431q1.09061.01613,2.224-.00819.80221-.01806,1.62722-.05863c.766-.03687,1.54939-.09268,2.34405-.15975.57808-.0489,1.15948-.10164,1.75266-.16769.80977-.08986,1.6413-.20584,2.47923-.32923.61443-.09063,1.22758-.17947,1.85712-.28879.86865-.151,1.76342-.33716,2.66074-.52636.63722-.13441,1.26778-.25934,1.91933-.41372.95032-.22529,1.93238-.4964,2.91342-.7665.63671-.17537,1.26061-.332,1.91037-.52713,1.1006-.33051,2.23832-.71965,3.376-1.10956.56656-.19431,1.11622-.3597,1.692-.56911,1.73065-.62928,3.4979-1.32077,5.31073-2.09547l.00819-.0041c2.87221-1.22374,5.70883-2.29157,8.52011-3.25187.91986-.31413,1.822-.555,2.73524-.841,1.87786-.58832,3.75059-1.15616,5.59977-1.62543,1.077-.27342,2.13924-.48668,3.20656-.71965,1.66229-.36277,3.31844-.69891,4.95641-.96338,1.10981-.17946,2.20965-.32232,3.3082-.45647q2.364-.28878,4.69194-.43957c1.0919-.0704,2.181-.13006,3.2611-.15463,1.55655-.03533,3.09442-.00179,4.62564.05811,1.02277.03994,2.04938.063,3.06063.14542,1.65128.13466,3.27645.36533,4.897.61289.8474.12954,1.70658.21505,2.54528.37557a67.89605,67.89605,0,0,1,7.10359,1.74012c.03277.01.06733.01536.1001.02535l.0128.00333C332.65871,396.37246,332.95466,395.8182,333.23858,395.2629Z" transform="translate(0 -7)"/>
  <path class="cls-10" d="M173.01513,537.16516h-32.2437a11.89,11.89,0,0,1-11.89-11.89V283.39759a11.89,11.89,0,0,0-11.89-11.89H63.88083a11.89,11.89,0,0,0-11.89,11.89V549.02753h.00281a11.888,11.888,0,0,0,11.88719,11.8621H173.526a11.84661,11.84661,0,0,0,11.60271-14.21225C184.03157,541.03883,178.75942,537.16516,173.01513,537.16516Z" transform="translate(0 -7)"/>
  <path class="cls-10" d="M332.66406,135.97494c25.93773,0,50.20761,4.79517,70.97145,13.13555a5.93247,5.93247,0,0,0,7.27208-8.51517L368.151,66.53874a11.89,11.89,0,0,0-10.297-5.945H307.47487a11.89,11.89,0,0,0-10.297,5.94494l-42.757,74.05654a5.93246,5.93246,0,0,0,7.27207,8.51518C282.45673,140.77008,306.7264,135.97494,332.66406,135.97494Z" transform="translate(0 -7)"/>
</svg>
